<svg id="SvgjsSvg1057" width="256" height="256" xmlns="http://www.w3.org/2000/svg" version="1.1" xmlns:xlink="http://www.w3.org/1999/xlink" xmlns:svgjs="http://svgjs.com/svgjs"><defs id="SvgjsDefs1058"></defs><g id="SvgjsG1059"><svg xmlns="http://www.w3.org/2000/svg" viewBox="0 0 24 24" width="256" height="256"><path d="M19,13H17a1,1,0,0,0,0,2h.91A6,6,0,0,1,13,19.91V11h1a1,1,0,0,0,0-2H13V7.82a3,3,0,1,0-2,0V9H10a1,1,0,0,0,0,2h1v8.91A6,6,0,0,1,6.09,15H7a1,1,0,0,0,0-2H5a1,1,0,0,0-1,1,8,8,0,0,0,16,0A1,1,0,0,0,19,13ZM12,6a1,1,0,1,1,1-1A1,1,0,0,1,12,6Z" fill="#000000" class="color000 svgShape"></path></svg></g></svg>