<svg id="SvgjsSvg1017" width="256" height="256" xmlns="http://www.w3.org/2000/svg" version="1.1" xmlns:xlink="http://www.w3.org/1999/xlink" xmlns:svgjs="http://svgjs.com/svgjs"><defs id="SvgjsDefs1018"></defs><g id="SvgjsG1019"><svg xmlns="http://www.w3.org/2000/svg" viewBox="0 0 24 24" width="256" height="256"><path d="M17.505 14.917a.857.857 0 0 1 .152-.26c.135-.134.452-.23.759-.323.51-.155 1.089-.33 1.38-.833.287-.496.151-1.08.032-1.595-.074-.316-.15-.643-.098-.834.045-.175.278-.422.483-.64.369-.393.787-.838.787-1.432s-.418-1.039-.787-1.432c-.205-.218-.437-.465-.483-.639-.051-.191.025-.519.098-.835.119-.515.255-1.099-.032-1.596-.291-.503-.869-.678-1.38-.832-.307-.093-.623-.189-.758-.323s-.23-.451-.323-.758c-.154-.51-.329-1.088-.832-1.379-.499-.289-1.081-.153-1.597-.033-.316.073-.642.149-.834.098-.175-.047-.422-.279-.64-.484C13.039.418 12.594 0 12 0c-.593 0-1.038.418-1.431.787-.219.205-.466.437-.641.484-.192.052-.519-.025-.834-.098-.517-.12-1.1-.255-1.597.032-.502.291-.677.869-.831 1.38-.093.307-.189.624-.323.758-.135.134-.452.23-.759.323-.51.155-1.089.33-1.38.833-.287.496-.151 1.08-.032 1.595.074.316.15.643.098.834-.045.175-.278.422-.483.64C3.418 7.961 3 8.407 3 9s.418 1.039.787 1.432c.205.218.437.465.483.639.051.191-.025.519-.098.835-.119.515-.255 1.099.032 1.596.291.503.869.678 1.38.832.307.093.623.189.758.323a.85.85 0 0 1 .152.259l-3.456 8.393a.5.5 0 0 0 .686.637l3.74-1.87 2.759 1.839a.498.498 0 0 0 .745-.24l1.092-2.912.965 2.895a.5.5 0 0 0 .752.258l2.759-1.839 3.74 1.87a.498.498 0 0 0 .685-.637l-3.456-8.393zm-5.973 4.406-1.279 3.41-2.476-1.65a.5.5 0 0 0-.501-.031L4.47 22.455l2.542-6.175c.12.204.268.388.485.514.499.289 1.082.153 1.597.033.315-.073.641-.151.834-.098.175.047.422.279.64.484.141.132.292.265.45.388.004.019.001.038.007.057l.538 1.615c-.009.018-.024.031-.031.05zM11.999 17c-.197 0-.489-.274-.747-.516-.318-.3-.648-.609-1.066-.721a1.573 1.573 0 0 0-.408-.051c-.303 0-.61.072-.909.141-.32.075-.716.167-.87.076-.161-.093-.275-.47-.376-.803-.128-.425-.26-.864-.573-1.176-.312-.312-.751-.445-1.176-.573-.333-.1-.71-.214-.804-.375-.089-.155.003-.551.077-.87.101-.436.205-.886.09-1.319-.113-.418-.422-.747-.721-1.066-.243-.258-.517-.55-.517-.747 0-.197.275-.489.517-.747.299-.318.609-.648.721-1.066.115-.432.011-.882-.09-1.318-.074-.319-.166-.715-.077-.869.094-.161.471-.275.805-.376.425-.128.863-.261 1.176-.573.311-.311.444-.751.573-1.175.101-.333.215-.711.375-.804.157-.088.552.003.869.077.434.101.883.206 1.318.09.418-.112.748-.422 1.067-.721.257-.242.549-.516.746-.516.197 0 .489.274.747.516.318.3.648.609 1.066.721.434.116.884.011 1.317-.09.319-.075.716-.166.87-.076.161.093.275.47.376.803.128.425.26.864.573 1.176.312.312.751.445 1.176.573.333.1.71.214.804.375.089.155-.003.551-.077.87-.101.436-.205.886-.09 1.319.113.418.422.747.721 1.066.243.258.517.55.517.747 0 .197-.275.489-.517.747-.299.318-.609.648-.721 1.066-.115.432-.011.882.09 1.318.074.319.166.715.077.869-.094.161-.471.275-.805.376-.425.128-.863.261-1.176.573-.311.311-.444.751-.573 1.175-.101.333-.215.711-.375.804-.154.089-.551-.003-.869-.077-.434-.101-.883-.206-1.318-.09-.418.112-.748.422-1.067.721-.257.242-.549.516-.746.516zm4.724 4.053a.497.497 0 0 0-.501.031l-2.455 1.637-1.584-4.752c.5-.076.898-.427 1.248-.756.219-.205.466-.437.641-.484.193-.051.519.025.834.098.517.12 1.1.255 1.597-.032.216-.125.364-.31.484-.514l2.542 6.175-2.806-1.403zM18 9c0-3.309-2.691-6-6-6S6 5.691 6 9s2.691 6 6 6 6-2.691 6-6zm-6 5c-2.757 0-5-2.243-5-5s2.243-5 5-5 5 2.243 5 5-2.243 5-5 5z" fill="#000000" class="color000 svgShape"></path></svg></g></svg>