<svg id="SvgjsSvg1036" width="256" height="256" xmlns="http://www.w3.org/2000/svg" version="1.1" xmlns:xlink="http://www.w3.org/1999/xlink" xmlns:svgjs="http://svgjs.com/svgjs"><defs id="SvgjsDefs1037"></defs><g id="SvgjsG1038"><svg xmlns="http://www.w3.org/2000/svg" viewBox="0 0 1792 1792" width="256" height="256"><path d="M1117.667 915.111q0 161.778-67.667 288.167-67.667 126.389-192.889 197.555Q731.89 1472 570.111 1472q-115.889 0-221.667-45.111-105.777-45.111-182-121.333-76.222-76.223-121.333-182Q0 1017.778 0 901.889t45.111-221.667q45.111-105.778 121.333-182 76.223-76.222 182-121.333 105.778-45.111 221.667-45.111 222.445 0 381.889 149.333L797.222 629.667q-91-87.89-227.11-87.89-95.668 0-176.945 48.223-81.278 48.222-128.723 131.056Q217 803.889 217 901.889t47.444 180.833q47.445 82.834 128.723 131.056Q474.444 1262 570.11 1262q64.556 0 118.611-17.889 54.056-17.889 89.056-44.722 35-26.833 61.055-61.056 26.056-34.222 38.111-64.555 12.056-30.334 16.723-57.556H570.11v-196h538.222q9.334 49 9.334 94.89zM1792 820.222v163.334h-162.556v162.555h-163.333V983.556h-162.555V820.222h162.555V657.667h163.333v162.555H1792z" fill="#ffffff" class="color000 svgShape"></path></svg></g></svg>