<svg id="SvgjsSvg1061" width="256" height="256" xmlns="http://www.w3.org/2000/svg" version="1.1" xmlns:xlink="http://www.w3.org/1999/xlink" xmlns:svgjs="http://svgjs.com/svgjs"><defs id="SvgjsDefs1062"></defs><g id="SvgjsG1063"><svg xmlns="http://www.w3.org/2000/svg" viewBox="0 0 32 32.646" width="256" height="256"><path d="M8.06 18.506c1.546-2.734-.498-3.334-.818-5.316-1.31-8.1 9.344-13.632 14.924-7.972 3.86 3.92 1.318 15.972-4.906 14.72-5.962-1.198 2.92-10.792-1.838-12.674-3.868-1.532-5.922 4.68-4.088 7.768C10.258 20.342 7.942 25.342 8.88 32c3.04-2.206 4.066-6.432 4.906-10.838 1.528.93 2.346 1.896 4.294 2.046 7.186.558 11.202-7.174 10.218-14.31-.872-6.324-7.178-9.544-13.902-8.79C9.08.704 3.78 5.002 3.56 11.148c-.134 3.752.93 6.568 4.5 7.358z" fill="#ffffff" class="color000 svgShape"></path></svg></g></svg>