<svg id="SvgjsSvg1016" width="256" height="256" xmlns="http://www.w3.org/2000/svg" version="1.1" xmlns:xlink="http://www.w3.org/1999/xlink" xmlns:svgjs="http://svgjs.com/svgjs"><defs id="SvgjsDefs1017"></defs><g id="SvgjsG1018"><svg xmlns="http://www.w3.org/2000/svg" viewBox="0 0 16 16" width="256" height="256"><path d="M14.072.004c-.496 0-.993.191-1.367.57l-2.603 2.637L5.282.539a.5.5 0 0 0-.239-.062v.002a.5.5 0 0 0-.357.144l-1.86 1.863a.5.5 0 0 0 .065.76l4.214 3L4.547 8.84a.5.5 0 0 0-.129.185L2.545 7.891a.5.5 0 0 0-.287-.073.5.5 0 0 0-.328.147L.152 9.77a.5.5 0 0 0 .106.785L3.643 12.5l1.732 3.232a.5.5 0 0 0 .799.118l1.775-1.801a.5.5 0 0 0 .082-.594l-.926-1.685 2.727-2.764 2.85 4.037a.5.5 0 0 0 .767.06l1.82-1.874a.5.5 0 0 0 .08-.584l-2.495-4.7 2.585-2.62a1.964 1.964 0 0 0 0-2.75c-.374-.38-.87-.571-1.367-.571zm0 .988c.235 0 .469.095.655.283a.954.954 0 0 1 0 1.348l-8.24 8.346L5.165 9.62a.5.5 0 0 0 .09-.078l2.959-2.998.012-.01a.5.5 0 0 0 .003-.004l2.317-2.347 2.871-2.909a.917.917 0 0 1 .654-.283zm-8.945.606 4.246 2.351-.475.483-1.082 1.095-3.865-2.752 1.176-1.177zm6.99 5.093 2.18 4.1-1.147 1.184-2.603-3.692 1.57-1.592zM2.363 8.95l1.828 1.108 1.893 1.933.89 1.621-1.037 1.051-1.48-2.762a.5.5 0 0 0-.191-.195l-2.948-1.697 1.045-1.059z" color="#000" font-family="sans-serif" font-weight="400" overflow="visible" style="line-height:normal;text-indent:0;text-align:start;text-decoration-line:none;text-decoration-style:solid;text-decoration-color:#000;text-transform:none;block-progression:tb;isolation:auto;mix-blend-mode:normal" fill="#000000" class="color000 svgShape"></path></svg></g></svg>